<svg width="332" height="80" viewBox="0 0 332 80" fill="none" xmlns="http://www.w3.org/2000/svg">
<g clip-path="url(#clip0_2_79)">
<path d="M93.3555 20.1875V60H85.1797V20.1875H93.3555ZM105.605 20.1875V26.6133H73.1211V20.1875H105.605ZM117.473 18V60H109.598V18H117.473ZM116.352 44.168H114.191C114.21 42.1081 114.483 40.2122 115.012 38.4805C115.54 36.7305 116.297 35.2174 117.281 33.9414C118.266 32.6471 119.441 31.6445 120.809 30.9336C122.194 30.2227 123.725 29.8672 125.402 29.8672C126.861 29.8672 128.182 30.0768 129.367 30.4961C130.57 30.8971 131.6 31.5534 132.457 32.4648C133.332 33.3581 134.007 34.5339 134.48 35.9922C134.954 37.4505 135.191 39.2188 135.191 41.2969V60H127.262V41.2422C127.262 39.9297 127.07 38.8997 126.688 38.1523C126.323 37.3867 125.785 36.849 125.074 36.5391C124.382 36.2109 123.525 36.0469 122.504 36.0469C121.374 36.0469 120.408 36.2565 119.605 36.6758C118.822 37.0951 118.193 37.6784 117.719 38.4258C117.245 39.1549 116.898 40.0117 116.68 40.9961C116.461 41.9805 116.352 43.0378 116.352 44.168ZM154.797 60.5469C152.5 60.5469 150.44 60.1823 148.617 59.4531C146.794 58.7057 145.245 57.6758 143.969 56.3633C142.711 55.0508 141.745 53.5286 141.07 51.7969C140.396 50.0469 140.059 48.1875 140.059 46.2188V45.125C140.059 42.8828 140.378 40.832 141.016 38.9727C141.654 37.1133 142.565 35.5 143.75 34.1328C144.953 32.7656 146.411 31.7174 148.125 30.9883C149.839 30.2409 151.771 29.8672 153.922 29.8672C156.018 29.8672 157.878 30.2135 159.5 30.9062C161.122 31.599 162.48 32.5833 163.574 33.8594C164.686 35.1354 165.525 36.6667 166.09 38.4531C166.655 40.2214 166.938 42.1901 166.938 44.3594V47.6406H143.422V42.3906H159.199V41.7891C159.199 40.6953 158.999 39.7201 158.598 38.8633C158.215 37.9883 157.632 37.2956 156.848 36.7852C156.064 36.2747 155.061 36.0195 153.84 36.0195C152.801 36.0195 151.908 36.2474 151.16 36.7031C150.413 37.1589 149.802 37.7969 149.328 38.6172C148.872 39.4375 148.526 40.4036 148.289 41.5156C148.07 42.6094 147.961 43.8125 147.961 45.125V46.2188C147.961 47.4036 148.125 48.4974 148.453 49.5C148.799 50.5026 149.283 51.3685 149.902 52.0977C150.54 52.8268 151.306 53.3919 152.199 53.793C153.111 54.194 154.141 54.3945 155.289 54.3945C156.711 54.3945 158.033 54.1211 159.254 53.5742C160.493 53.0091 161.56 52.1615 162.453 51.0312L166.281 55.1875C165.661 56.0807 164.814 56.9375 163.738 57.7578C162.681 58.5781 161.405 59.2526 159.91 59.7812C158.415 60.2917 156.711 60.5469 154.797 60.5469ZM171.914 20.1875H186.762C189.806 20.1875 192.422 20.6432 194.609 21.5547C196.815 22.4661 198.51 23.8151 199.695 25.6016C200.88 27.388 201.473 29.5846 201.473 32.1914C201.473 34.3242 201.108 36.1562 200.379 37.6875C199.668 39.2005 198.656 40.4674 197.344 41.4883C196.049 42.4909 194.527 43.293 192.777 43.8945L190.18 45.2617H177.273L177.219 38.8633H186.816C188.257 38.8633 189.451 38.6081 190.398 38.0977C191.346 37.5872 192.057 36.8763 192.531 35.9648C193.023 35.0534 193.27 33.9961 193.27 32.793C193.27 31.5169 193.033 30.4141 192.559 29.4844C192.085 28.5547 191.365 27.8438 190.398 27.3516C189.432 26.8594 188.22 26.6133 186.762 26.6133H180.117V60H171.914V20.1875ZM194.172 60L185.094 42.2539L193.762 42.1992L202.949 59.6172V60H194.172ZM206.039 45.5078V44.9336C206.039 42.7643 206.349 40.7682 206.969 38.9453C207.589 37.1042 208.491 35.5091 209.676 34.1602C210.861 32.8112 212.319 31.763 214.051 31.0156C215.783 30.25 217.77 29.8672 220.012 29.8672C222.254 29.8672 224.25 30.25 226 31.0156C227.75 31.763 229.217 32.8112 230.402 34.1602C231.605 35.5091 232.517 37.1042 233.137 38.9453C233.757 40.7682 234.066 42.7643 234.066 44.9336V45.5078C234.066 47.6589 233.757 49.6549 233.137 51.4961C232.517 53.319 231.605 54.9141 230.402 56.2812C229.217 57.6302 227.759 58.6784 226.027 59.4258C224.296 60.1732 222.309 60.5469 220.066 60.5469C217.824 60.5469 215.828 60.1732 214.078 59.4258C212.346 58.6784 210.879 57.6302 209.676 56.2812C208.491 54.9141 207.589 53.319 206.969 51.4961C206.349 49.6549 206.039 47.6589 206.039 45.5078ZM213.914 44.9336V45.5078C213.914 46.7474 214.023 47.9049 214.242 48.9805C214.461 50.056 214.807 51.0039 215.281 51.8242C215.773 52.6263 216.411 53.2552 217.195 53.7109C217.979 54.1667 218.936 54.3945 220.066 54.3945C221.16 54.3945 222.099 54.1667 222.883 53.7109C223.667 53.2552 224.296 52.6263 224.77 51.8242C225.243 51.0039 225.59 50.056 225.809 48.9805C226.046 47.9049 226.164 46.7474 226.164 45.5078V44.9336C226.164 43.7305 226.046 42.6003 225.809 41.543C225.59 40.4674 225.234 39.5195 224.742 38.6992C224.268 37.8607 223.639 37.2044 222.855 36.7305C222.072 36.2565 221.124 36.0195 220.012 36.0195C218.9 36.0195 217.952 36.2565 217.168 36.7305C216.402 37.2044 215.773 37.8607 215.281 38.6992C214.807 39.5195 214.461 40.4674 214.242 41.543C214.023 42.6003 213.914 43.7305 213.914 44.9336ZM237.648 45.5078V44.9336C237.648 42.7643 237.958 40.7682 238.578 38.9453C239.198 37.1042 240.1 35.5091 241.285 34.1602C242.47 32.8112 243.928 31.763 245.66 31.0156C247.392 30.25 249.379 29.8672 251.621 29.8672C253.863 29.8672 255.859 30.25 257.609 31.0156C259.359 31.763 260.827 32.8112 262.012 34.1602C263.215 35.5091 264.126 37.1042 264.746 38.9453C265.366 40.7682 265.676 42.7643 265.676 44.9336V45.5078C265.676 47.6589 265.366 49.6549 264.746 51.4961C264.126 53.319 263.215 54.9141 262.012 56.2812C260.827 57.6302 259.368 58.6784 257.637 59.4258C255.905 60.1732 253.918 60.5469 251.676 60.5469C249.434 60.5469 247.438 60.1732 245.688 59.4258C243.956 58.6784 242.488 57.6302 241.285 56.2812C240.1 54.9141 239.198 53.319 238.578 51.4961C237.958 49.6549 237.648 47.6589 237.648 45.5078ZM245.523 44.9336V45.5078C245.523 46.7474 245.633 47.9049 245.852 48.9805C246.07 50.056 246.417 51.0039 246.891 51.8242C247.383 52.6263 248.021 53.2552 248.805 53.7109C249.589 54.1667 250.546 54.3945 251.676 54.3945C252.77 54.3945 253.708 54.1667 254.492 53.7109C255.276 53.2552 255.905 52.6263 256.379 51.8242C256.853 51.0039 257.199 50.056 257.418 48.9805C257.655 47.9049 257.773 46.7474 257.773 45.5078V44.9336C257.773 43.7305 257.655 42.6003 257.418 41.543C257.199 40.4674 256.844 39.5195 256.352 38.6992C255.878 37.8607 255.249 37.2044 254.465 36.7305C253.681 36.2565 252.733 36.0195 251.621 36.0195C250.509 36.0195 249.561 36.2565 248.777 36.7305C248.012 37.2044 247.383 37.8607 246.891 38.6992C246.417 39.5195 246.07 40.4674 245.852 41.543C245.633 42.6003 245.523 43.7305 245.523 44.9336ZM278.391 36.5391V60H270.488V30.4141H277.898L278.391 36.5391ZM277.297 44.168H275.109C275.109 42.1081 275.355 40.2122 275.848 38.4805C276.358 36.7305 277.096 35.2174 278.062 33.9414C279.047 32.6471 280.259 31.6445 281.699 30.9336C283.139 30.2227 284.807 29.8672 286.703 29.8672C288.016 29.8672 289.219 30.0677 290.312 30.4688C291.406 30.8516 292.345 31.4622 293.129 32.3008C293.931 33.1211 294.551 34.1966 294.988 35.5273C295.426 36.8398 295.645 38.4167 295.645 40.2578V60H287.77V41.1328C287.77 39.7839 287.587 38.7448 287.223 38.0156C286.858 37.2865 286.339 36.776 285.664 36.4844C285.008 36.1927 284.215 36.0469 283.285 36.0469C282.264 36.0469 281.371 36.2565 280.605 36.6758C279.858 37.0951 279.238 37.6784 278.746 38.4258C278.254 39.1549 277.889 40.0117 277.652 40.9961C277.415 41.9805 277.297 43.0378 277.297 44.168ZM294.906 43.2656L292.09 43.6211C292.09 41.6888 292.327 39.8932 292.801 38.2344C293.293 36.5755 294.013 35.1172 294.961 33.8594C295.927 32.6016 297.121 31.6263 298.543 30.9336C299.965 30.2227 301.605 29.8672 303.465 29.8672C304.887 29.8672 306.181 30.0768 307.348 30.4961C308.514 30.8971 309.508 31.5443 310.328 32.4375C311.167 33.3125 311.805 34.4609 312.242 35.8828C312.698 37.3047 312.926 39.0456 312.926 41.1055V60H305.023V41.1055C305.023 39.7383 304.841 38.6992 304.477 37.9883C304.13 37.2591 303.62 36.7578 302.945 36.4844C302.289 36.1927 301.505 36.0469 300.594 36.0469C299.646 36.0469 298.816 36.2383 298.105 36.6211C297.395 36.9857 296.802 37.4961 296.328 38.1523C295.854 38.8086 295.499 39.5742 295.262 40.4492C295.025 41.306 294.906 42.2448 294.906 43.2656Z" fill="black"/>
<path d="M66.5199 17.3283C66.7446 17.5201 66.9012 17.7794 66.9663 18.0676C67.0314 18.3558 67.0016 18.6573 66.8812 18.9271C62.6926 28.3173 53.8964 41.2939 47.4574 48.056C45.6526 49.9477 43.4267 51.3866 40.9609 52.2556C40.9116 52.8771 40.7966 53.7285 40.5228 54.6319C39.9726 56.4361 38.6968 58.681 35.8469 59.3955C33.0868 60.0527 30.2265 60.1754 27.4203 59.7569C26.8985 59.6744 26.384 59.5509 25.8817 59.3873C25.417 59.2459 24.9838 59.0163 24.6059 58.7111C24.3567 58.4991 24.1647 58.228 24.0475 57.9226C23.9021 57.5307 23.906 57.099 24.0584 56.7098C24.3185 56.0391 24.9235 55.6695 25.3205 55.4724C26.3991 54.9331 27.0315 54.2322 27.694 53.2111C27.9541 52.8168 28.1978 52.398 28.4798 51.9189L28.8001 51.3768C29.2135 50.6787 29.6926 49.8985 30.2948 49.0553C31.7403 47.0321 33.5828 46.5229 35.0748 46.6023C35.4198 46.6215 35.7401 46.6707 36.0276 46.7337C36.1973 46.2628 36.4163 45.6934 36.6791 45.0692C37.3937 43.3746 38.4805 41.1844 39.9287 39.4049C45.8859 32.0953 56.8476 22.4149 64.8882 17.2188C65.1357 17.059 65.4282 16.9833 65.7222 17.0031C66.0161 17.0228 66.2959 17.1368 66.5199 17.3283Z" fill="black"/>
</g>
<defs>
<clipPath id="clip0_2_79">
<rect width="332" height="80" fill="white"/>
</clipPath>
</defs>
</svg>
